<svg id="Circle_Button_SIZE_MEDIUM_STATE_DEFAULT_STYLE_STYLE2_" data-name="Circle Button [SIZE=MEDIUM][STATE=DEFAULT][STYLE=STYLE2]" xmlns="http://www.w3.org/2000/svg" width="48" height="48" viewBox="0 0 48 48">
  <rect id="Area_SIZE:MEDIUM_STATE:DEFAULT_STYLE:STYLE2_" data-name="Area [SIZE:MEDIUM][STATE:DEFAULT][STYLE:STYLE2]" width="48" height="48" rx="24" fill="#969696"/>
  <g id="Icon_ICON_custom_google_SIZE_MEDIUM_STATE_DEFAULT_STYLE_STYLE2_" data-name="Icon [ICON=custom/google][SIZE=MEDIUM][STATE=DEFAULT][STYLE=STYLE2]" transform="translate(14 14)">
    <rect id="Area_ICON:custom_google_SIZE:MEDIUM_STATE:DEFAULT_STYLE:STYLE2_" data-name="Area [ICON:custom/google][SIZE:MEDIUM][STATE:DEFAULT][STYLE:STYLE2]" width="20" height="20" fill="#fff" opacity="0"/>
    <g id="Icon" transform="translate(-1 -1)">
      <path id="_9f055ff3-996e-4662-8f15-38cdf4458ced" data-name="9f055ff3-996e-4662-8f15-38cdf4458ced" d="M23.139,11.375h-.806v-.042h-9v4h5.652a6,6,0,1,1-1.671-6.481l2.828-2.828a9.963,9.963,0,1,0,3,5.351Z" transform="translate(-2.343 -2.334)" fill="#fff"/>
      <path id="d2935d1b-29c5-40b7-b547-e57cccdf0ded" d="M5.255,8.7l3.3,2.417a6.009,6.009,0,0,1,9.576-2.243l2.839-2.837A10.017,10.017,0,0,0,5.255,8.7Z" transform="translate(-3.108 -2.334)" fill="#fff"/>
      <path id="d536ae85-abc0-410c-b6c8-824e318b4657" d="M14.1,31.379a9.988,9.988,0,0,0,6.729-2.606l-3.107-2.627a6.006,6.006,0,0,1-9.283-2.768L5.167,25.9A10.026,10.026,0,0,0,14.1,31.379Z" transform="translate(-3.07 -10.38)" fill="#fff"/>
      <path id="aca9bad5-fe13-4223-b6c4-c98827fefbe8" d="M29.84,16.708h-.808v-.041H20v4.014h5.672a6.046,6.046,0,0,1-2.051,2.8h0L26.727,26.1a9.711,9.711,0,0,0,3.307-7.43A10.066,10.066,0,0,0,29.84,16.708Z" transform="translate(-9.044 -7.71)" fill="#fff"/>
    </g>
  </g>
</svg>
