<svg width="36" height="36" viewBox="0 0 36 36" fill="none" xmlns="http://www.w3.org/2000/svg">
<path fill-rule="evenodd" clip-rule="evenodd" d="M5.94771 0C2.66288 0 0 2.68629 0 6V30C0 33.3137 2.66288 36 5.94771 36H29.0523C32.3371 36 35 33.3137 35 30V6C35 2.68629 32.3371 0 29.0523 0H5.94771ZM4.80352 8.0532C4.80352 9.86327 6.1639 11.186 7.84197 11.186C9.52029 11.186 10.8807 9.86327 10.8807 8.0532C10.8807 6.2434 9.52029 4.91913 7.84197 4.91913C6.1639 4.91913 4.80352 6.2434 4.80352 8.0532ZM24.6369 30.9394H29.9072V20.2164C29.9072 14.9206 26.7293 13.1143 23.7884 13.1143C21.0691 13.1143 19.2219 14.9365 18.7119 16.0039V13.6016H13.6433V30.9394H18.9137V21.5394C18.9137 19.0331 20.4467 17.8142 22.0106 17.8142C23.4897 17.8142 24.6369 18.6758 24.6369 21.4698V30.9394ZM10.477 13.5883V30.926H5.20691V13.5883H10.477Z" fill="#005087"/>
</svg>
