<svg width="24" height="24" viewBox="0 0 24 24" fill="none" xmlns="http://www.w3.org/2000/svg">
<path fill-rule="evenodd" clip-rule="evenodd" d="M7.21163 5.0993V6.54277L5.50377 6.68305C4.91704 6.73067 4.36309 6.97526 3.93048 7.37773C3.49787 7.7802 3.21159 8.31729 3.11741 8.90315C3.07608 9.16541 3.03676 9.42768 3.00248 9.69096C2.99432 9.75462 3.00642 9.81924 3.03705 9.87551C3.06767 9.93178 3.11523 9.97679 3.17286 10.004L3.25049 10.0406C8.72389 12.6531 15.2781 12.6531 20.7505 10.0406L20.8281 10.004C20.8855 9.97663 20.9329 9.93156 20.9633 9.8753C20.9937 9.81904 21.0057 9.7545 20.9975 9.69096C20.9633 9.42781 20.9253 9.16518 20.8835 8.90315C20.7894 8.31729 20.5031 7.7802 20.0705 7.37773C19.6379 6.97526 19.0839 6.73067 18.4972 6.68305L16.7893 6.54379V5.10032C16.7894 4.67425 16.6379 4.26229 16.3622 3.93936C16.0865 3.61644 15.705 3.40402 15.2871 3.34071L14.0572 3.15469C12.6937 2.94844 11.3073 2.94844 9.94379 3.15469L8.71381 3.34071C8.2961 3.40399 7.91476 3.61627 7.6391 3.93898C7.36345 4.26169 7.21176 4.6734 7.21163 5.0993ZM13.8323 4.6622C12.6179 4.47854 11.3831 4.47854 10.1686 4.6622L8.93864 4.84822C8.87896 4.85723 8.82447 4.88752 8.78506 4.93359C8.74566 4.97967 8.72395 5.03847 8.72389 5.0993V6.43604C10.9065 6.30997 13.0945 6.30997 15.2771 6.43604V5.0993C15.277 5.03847 15.2553 4.97967 15.2159 4.93359C15.1765 4.88752 15.122 4.85723 15.0623 4.84822L13.8323 4.6622Z" fill="#005087"/>
<path d="M20.9621 12.1781C20.9602 12.1474 20.9506 12.1177 20.9341 12.0914C20.9176 12.0651 20.8947 12.0431 20.8674 12.0272C20.8402 12.0114 20.8093 12.0021 20.7775 12.0003C20.7457 11.9985 20.714 12.0042 20.685 12.0168C15.2091 14.3568 8.79061 14.3568 3.31475 12.0168C3.28574 12.0042 3.25397 11.9985 3.22219 12.0003C3.19041 12.0021 3.15955 12.0114 3.13229 12.0272C3.10502 12.0431 3.08215 12.0651 3.06565 12.0914C3.04915 12.1177 3.03951 12.1474 3.03756 12.1781C2.93711 13.994 3.03827 15.8151 3.33932 17.6102C3.43094 18.1571 3.70996 18.6584 4.13175 19.0342C4.55354 19.4099 5.09373 19.6383 5.6659 19.6827L7.50593 19.825C10.497 20.0583 13.5018 20.0583 16.4938 19.825L18.3338 19.6827C18.906 19.6383 19.4462 19.4099 19.868 19.0342C20.2897 18.6584 20.5688 18.1571 20.6604 17.6102C20.9612 15.8128 21.0634 13.9916 20.9621 12.179V12.1781Z" fill="#005087"/>
</svg>
