<?xml version="1.0" encoding="utf-8"?>
<!-- Generator: Adobe Illustrator 28.1.0, SVG Export Plug-In . SVG Version: 6.00 Build 0)  -->
<svg version="1.1" id="圖層_1" xmlns="http://www.w3.org/2000/svg" xmlns:xlink="http://www.w3.org/1999/xlink" x="0px" y="0px"
	 viewBox="0 0 150 150" style="enable-background:new 0 0 150 150;" xml:space="preserve">
<style type="text/css">
	.st0{display:none;}
	.st1{display:inline;fill:none;stroke:#005087;stroke-width:5;stroke-miterlimit:10;}
	.st2{display:inline;}
	.st3{fill:#64DCF0;stroke:#005087;stroke-width:5;stroke-miterlimit:10;}
	.st4{display:inline;fill:#005087;}
	.st5{font-family:'MabryPro-Black';}
	.st6{font-size:26.3744px;}
	.st7{fill:#005087;}
	.st8{fill:none;stroke:#005087;stroke-width:6;stroke-miterlimit:10;}
	.st9{enable-background:new    ;}
</style>
<g id="圖層_1_00000178172374005331764070000016745305795250382991_" class="st0">
	<rect x="14.33" y="29.61" class="st1" width="115.98" height="75.62"/>
	<rect x="59.8" y="105.22" class="st1" width="25.04" height="18.29"/>
	<rect x="37.72" y="124.17" class="st1" width="69.19" height="8.9"/>
	<g id="Layer_1" class="st2">
		<g>
			<path class="st3" d="M85.44,88.44l-2.05-2.79C79.25,80,80.47,72.04,86.12,67.9s13.61-2.92,17.75,2.73l2.05,2.79"/>
			<path class="st3" d="M124.83,70.81c-2.51,1.48-3.14,4.76-1.46,7.05c-1.58-2.16-4.62-2.62-6.78-1.04
				c-2.16,1.58-2.62,4.62-1.04,6.78c-1.58-2.16-4.62-2.62-6.78-1.04c-2.16,1.58-2.62,4.62-1.04,6.78l-9.01-12.28
				c-1.5-2.04-4.34-2.83-6.52-1.54c-2.51,1.48-3.14,4.76-1.46,7.05l12.04,16.41l3.44,4.69l0.53,0.73l-10.44-1.6
				c-2.65-0.41-5.12,1.41-5.53,4.05l0,0c-0.41,2.65,1.41,5.12,4.05,5.53l20.02,3.08l0.53,0.73l3.44,4.69l26.58-19.5l-2.49-3.39
				c-0.61-0.83-0.86-1.87-0.71-2.88l0.76-4.96c0.16-1.02-0.1-2.05-0.71-2.88l-1.92-2.61l-6.31-8.6l-2.7-3.69
				C129.85,70.3,127.01,69.52,124.83,70.81z"/>
		</g>
	</g>
	<text transform="matrix(0.9915 0 0 1 24.0566 61.8164)" class="st4 st5 st6">AUO</text>
</g>
<g id="圖層_2_00000139262481926690724610000017155949221592918673_" class="st0">
	<g id="Layer_x0020_1" class="st2">
		<path class="st7" d="M78.89,58.26c6.86,0,12.46,5.6,12.46,12.46v5.78c0,1.44-1.17,2.61-2.61,2.61H69.05
			c-1.44,0-2.61-1.17-2.61-2.61v-5.78C66.43,63.86,72.04,58.26,78.89,58.26z M55.86,90.72c-3.44,0-3.44-5.22,0-5.22h46.06
			c3.44,0,3.44,5.22,0,5.22H55.86z M55.86,113.2c-3.44,0-3.44-5.22,0-5.22h46.06c3.44,0,3.44,5.22,0,5.22H55.86z M55.86,101.96
			c-3.44,0-3.44-5.22,0-5.22h46.06c3.44,0,3.44,5.22,0,5.22H55.86z M40.51,24.22h58.94c0.72,0,1.37,0.29,1.85,0.77l17.82,17.82
			c0.51,0.51,0.77,1.18,0.77,1.85v81.43c0,1.44-1.17,2.61-2.61,2.61H40.51c-1.44,0-2.61-1.17-2.61-2.61V26.83
			C37.9,25.39,39.07,24.22,40.51,24.22z M98.37,29.44H43.12v94.02h71.54V45.73L98.37,29.44z M78.89,36.69
			c5.82,0,10.53,4.72,10.53,10.53c0,5.82-4.71,10.53-10.53,10.53s-10.53-4.72-10.53-10.53S73.07,36.69,78.89,36.69z M78.89,41.92
			c-2.93,0-5.31,2.38-5.31,5.31s2.38,5.31,5.31,5.31s5.31-2.38,5.31-5.31C84.2,44.29,81.82,41.92,78.89,41.92z M78.89,63.49
			c-3.97,0-7.23,3.26-7.23,7.23v3.17h14.47v-3.17C86.12,66.75,82.86,63.49,78.89,63.49z"/>
	</g>
</g>
<g id="圖層_3" class="st0">
	<g id="_309-Email_Check" class="st2">
		<polyline class="st8" points="71.68,111.56 25.15,111.56 25.15,38.44 124.85,38.44 124.85,71.68 		"/>
		<polyline class="st8" points="25.15,38.44 75,75 124.85,38.44 		"/>
		<polyline class="st8" points="88.29,94.94 98.26,104.91 121.53,81.65 		"/>
	</g>
</g>
<g id="圖層_4">
	<g id="_34-Time">
		<path class="st7" d="M72.32,17.16c-23.06,0-41.76,18.7-41.76,41.76s18.7,41.76,41.76,41.76s41.76-18.7,41.76-41.76
			S95.39,17.16,72.32,17.16z M74.93,95.33V85.02h-5.22v10.31c-18.1-1.31-32.49-15.71-33.8-33.8h10.31v-5.22H35.91
			c1.31-18.1,15.71-32.49,33.8-33.8v10.31h5.22V22.51c18.1,1.31,32.49,15.71,33.8,33.8h-10.3v5.22h10.31
			C107.42,79.63,93.03,94.02,74.93,95.33z"/>
		<path class="st7" d="M74.93,40.65h-5.22v18.27c0,0.69,0.27,1.36,0.76,1.85l13.05,13.05l3.68-3.68L74.93,57.85V40.65z"/>
	</g>
	<g class="st9">
		<path class="st7" d="M38.25,113.32v2.99c-1.77,1.05-3.09,2.37-3.95,3.95c-0.86,1.58-1.29,3.44-1.29,5.58
			c0,1.36,0.15,2.77,0.46,4.24h-3.95c-0.21-1.2-0.31-2.35-0.31-3.47c0-4.13,1.5-7.45,4.5-9.94h-7.3v-3.35H38.25z"/>
		<path class="st7" d="M47.45,122.42v3.23h-7.42v-3.23H47.45z"/>
		<path class="st7" d="M53.17,118.13c-0.48,0.8-1.08,1.4-1.81,1.8c-0.73,0.4-1.6,0.63-2.62,0.69l-0.72-3.59
			c1.47-0.06,2.67-0.44,3.62-1.13c0.94-0.69,1.57-1.55,1.89-2.59h3.35v16.76h-3.71V118.13z"/>
		<path class="st7" d="M66.84,126.49h-7.71v-3.35c0.97-0.89,1.7-1.74,2.18-2.55c0.48-0.81,0.79-1.64,0.95-2.49
			c0.15-0.85,0.23-1.93,0.23-3.22v-1.56h3.59v1.56c0,1.74-0.21,3.27-0.62,4.6c-0.42,1.33-1.17,2.59-2.25,3.78h3.64v-4.76h3.59v4.76
			h2.59v3.23h-2.59v3.59h-3.59V126.49z"/>
		<path class="st7" d="M82.33,129.62c-0.85-0.47-1.52-1.15-2.01-2.04c-0.49-0.89-0.74-1.93-0.74-3.12s0.25-2.25,0.74-3.15
			c0.5-0.9,1.16-1.6,2-2.08c0.84-0.49,1.76-0.73,2.77-0.73c0.72,0,1.38,0.15,2,0.46c0.61,0.3,1.1,0.7,1.47,1.2v-6.82h3.59v16.76
			h-3.47v-1.32c-0.37,0.5-0.85,0.88-1.45,1.15c-0.6,0.27-1.27,0.41-2.02,0.41C84.14,130.32,83.18,130.09,82.33,129.62z
			 M87.88,126.57c0.53-0.5,0.8-1.21,0.8-2.12c0-0.96-0.26-1.69-0.79-2.2c-0.53-0.51-1.18-0.77-1.96-0.77
			c-0.78,0-1.44,0.26-1.96,0.77c-0.53,0.51-0.79,1.24-0.79,2.2c0,0.91,0.27,1.62,0.8,2.12c0.54,0.5,1.19,0.75,1.95,0.75
			C86.69,127.33,87.34,127.08,87.88,126.57z"/>
		<path class="st7" d="M96.28,129.88c-0.57-0.3-1.02-0.71-1.35-1.25c-0.33-0.54-0.5-1.16-0.5-1.88c0-1.18,0.4-2.08,1.19-2.69
			s1.9-0.92,3.32-0.92c0.62,0,1.25,0.07,1.87,0.21l0.81,0.19v-0.58c0-0.54-0.17-0.97-0.52-1.27c-0.34-0.3-0.83-0.46-1.47-0.46
			c-0.61,0-1.09,0.14-1.46,0.42s-0.61,0.65-0.72,1.11l-3.04-0.81c0.35-1.07,0.97-1.92,1.87-2.54c0.89-0.62,2.02-0.93,3.38-0.93
			c1.82,0,3.18,0.4,4.08,1.2c0.9,0.8,1.35,1.96,1.35,3.47v6.92h-3.23v-1.56c-0.48,0.66-1,1.12-1.56,1.39
			c-0.56,0.27-1.28,0.41-2.15,0.41C97.47,130.32,96.85,130.17,96.28,129.88z M101.03,127.3c0.38-0.32,0.58-0.75,0.58-1.29v-0.07
			l-0.46-0.19c-0.53-0.22-1.08-0.33-1.65-0.33c-0.46,0-0.83,0.1-1.09,0.31c-0.26,0.21-0.4,0.5-0.4,0.89c0,0.37,0.14,0.65,0.41,0.86
			c0.27,0.21,0.65,0.31,1.15,0.31C100.16,127.78,100.65,127.62,101.03,127.3z"/>
		<path class="st7" d="M118.89,118.73l-7.83,16.09h-3.59l3.04-6.25l-4.6-9.84h3.71l2.75,6.01l2.92-6.01H118.89z"/>
		<path class="st7" d="M119.23,127.35l2.75-1.46c0.24,0.51,0.59,0.9,1.05,1.16c0.46,0.26,0.97,0.4,1.51,0.4
			c0.51,0,0.9-0.08,1.16-0.24c0.26-0.16,0.39-0.38,0.39-0.65c0-0.29-0.17-0.51-0.51-0.68c-0.34-0.17-1-0.32-1.98-0.47
			c-1.2-0.18-2.14-0.55-2.83-1.14c-0.69-0.58-1.03-1.36-1.03-2.33c0-0.69,0.21-1.29,0.62-1.82c0.42-0.53,0.96-0.93,1.64-1.21
			c0.68-0.28,1.4-0.42,2.17-0.42c1.26,0,2.24,0.21,2.93,0.62s1.21,0.99,1.54,1.72l-2.73,1.46c-0.11-0.35-0.32-0.61-0.61-0.79
			c-0.29-0.17-0.63-0.26-1.02-0.26c-0.35,0-0.64,0.06-0.86,0.19c-0.22,0.13-0.34,0.3-0.34,0.5c0,0.24,0.15,0.44,0.44,0.6
			c0.29,0.16,0.87,0.3,1.71,0.43c1.5,0.22,2.57,0.63,3.2,1.21c0.63,0.58,0.95,1.39,0.95,2.43c0,0.72-0.22,1.36-0.65,1.92
			c-0.43,0.56-1.03,1-1.78,1.32s-1.61,0.48-2.55,0.48C121.82,130.32,120.09,129.33,119.23,127.35z"/>
	</g>
</g>
<g id="圖層_5">
</g>
</svg>
