<?xml version="1.0" encoding="utf-8"?>
<!-- Generator: Adobe Illustrator 28.1.0, SVG Export Plug-In . SVG Version: 6.00 Build 0)  -->
<svg version="1.1" xmlns="http://www.w3.org/2000/svg" xmlns:xlink="http://www.w3.org/1999/xlink" x="0px" y="0px"
	 viewBox="0 0 150 150" style="enable-background:new 0 0 150 150;" xml:space="preserve">
<style type="text/css">
	.st0{display:none;}
	.st1{display:inline;fill:none;stroke:#005087;stroke-width:5;stroke-miterlimit:10;}
	.st2{display:inline;}
	.st3{fill:#64DCF0;stroke:#005087;stroke-width:5;stroke-miterlimit:10;}
	.st4{display:inline;fill:#005087;}
	.st5{font-family:'MabryPro-Black';}
	.st6{font-size:26.3744px;}
	.st7{fill:#005087;}
	.st8{fill:none;stroke:#005087;stroke-width:6;stroke-miterlimit:10;}
</style>
<g id="圖層_1" class="st0">
	<rect x="14.33" y="29.61" class="st1" width="115.98" height="75.62"/>
	<rect x="59.8" y="105.22" class="st1" width="25.04" height="18.29"/>
	<rect x="37.72" y="124.17" class="st1" width="69.19" height="8.9"/>
	<g id="Layer_1" class="st2">
		<g>
			<path class="st3" d="M85.44,88.44l-2.05-2.79c-4.14-5.65-2.92-13.61,2.73-17.75c5.65-4.14,13.61-2.92,17.75,2.73l2.05,2.79"/>
			<path class="st3" d="M124.83,70.81c-2.51,1.48-3.14,4.76-1.46,7.05c-1.58-2.16-4.62-2.62-6.78-1.04
				c-2.16,1.58-2.62,4.62-1.04,6.78c-1.58-2.16-4.62-2.62-6.78-1.04c-2.16,1.58-2.62,4.62-1.04,6.78l-9.01-12.28
				c-1.5-2.04-4.34-2.83-6.52-1.54c-2.51,1.48-3.14,4.76-1.46,7.05l12.04,16.41l3.44,4.69l0.53,0.73l-10.44-1.6
				c-2.65-0.41-5.12,1.41-5.53,4.05l0,0c-0.41,2.65,1.41,5.12,4.05,5.53l20.02,3.08l0.53,0.73l3.44,4.69l26.58-19.5l-2.49-3.39
				c-0.61-0.83-0.86-1.87-0.71-2.88l0.76-4.96c0.16-1.02-0.1-2.05-0.71-2.88l-1.92-2.61l-6.31-8.6l-2.7-3.69
				C129.85,70.3,127.01,69.52,124.83,70.81z"/>
		</g>
	</g>
	<text transform="matrix(0.9915 0 0 1 24.0566 61.8164)" class="st4 st5 st6">AUO</text>
</g>
<g id="圖層_2" class="st0">
	<g id="Layer_x0020_1" class="st2">
		<path class="st7" d="M78.89,58.26c6.86,0,12.46,5.6,12.46,12.46v5.78c0,1.44-1.17,2.61-2.61,2.61H69.05
			c-1.44,0-2.61-1.17-2.61-2.61v-5.78C66.43,63.86,72.04,58.26,78.89,58.26z M55.86,90.72c-3.44,0-3.44-5.22,0-5.22h46.06
			c3.44,0,3.44,5.22,0,5.22C101.92,90.72,55.86,90.72,55.86,90.72z M55.86,113.2c-3.44,0-3.44-5.22,0-5.22h46.06
			c3.44,0,3.44,5.22,0,5.22C101.92,113.2,55.86,113.2,55.86,113.2z M55.86,101.96c-3.44,0-3.44-5.22,0-5.22h46.06
			c3.44,0,3.44,5.22,0,5.22C101.92,101.96,55.86,101.96,55.86,101.96z M40.51,24.22h58.94c0.72,0,1.37,0.29,1.85,0.77l17.82,17.82
			c0.51,0.51,0.77,1.18,0.77,1.85v81.43c0,1.44-1.17,2.61-2.61,2.61H40.51c-1.44,0-2.61-1.17-2.61-2.61V26.83
			C37.9,25.39,39.07,24.22,40.51,24.22z M98.37,29.44H43.12v94.02h71.54V45.73C114.66,45.73,98.37,29.44,98.37,29.44z M78.89,36.69
			c5.82,0,10.53,4.72,10.53,10.53c0,5.82-4.71,10.53-10.53,10.53c-5.82,0-10.53-4.72-10.53-10.53
			C68.36,41.41,73.07,36.69,78.89,36.69z M78.89,41.92c-2.93,0-5.31,2.38-5.31,5.31c0,2.93,2.38,5.31,5.31,5.31
			c2.93,0,5.31-2.38,5.31-5.31C84.2,44.29,81.82,41.92,78.89,41.92z M78.89,63.49c-3.97,0-7.23,3.26-7.23,7.23v3.17h14.47v-3.17
			C86.12,66.75,82.86,63.49,78.89,63.49z"/>
	</g>
</g>
<g id="圖層_3" class="st0">
	<g id="_309-Email_Check" class="st2">
		<polyline class="st8" points="71.68,111.56 25.15,111.56 25.15,38.44 124.85,38.44 124.85,71.68 		"/>
		<polyline class="st8" points="25.15,38.44 75,75 124.85,38.44 		"/>
		<polyline class="st8" points="88.29,94.94 98.26,104.91 121.53,81.65 		"/>
	</g>
</g>
<g id="圖層_4">
	<g id="Layer_42">
		<path class="st7" d="M31.95,111.42c-1.77,0.01-3.22-1.42-3.23-3.19c0-0.12,0.01-0.25,0.02-0.37l2.47-22.46
			c0.09-0.72,0.42-1.39,0.93-1.89l52.5-52.5c4.01-4.01,10.51-4.02,14.52-0.01c0,0,0.01,0.01,0.01,0.01l9.98,9.98
			c4.01,4.01,4.02,10.51,0.01,14.52c0,0-0.01,0.01-0.01,0.01l-52.46,52.46c-0.51,0.51-1.18,0.84-1.89,0.93l-22.46,2.47L31.95,111.42
			z M54.41,105.71L54.41,105.71z M37.5,87.19l-1.93,17.39l17.39-1.93L104.63,51c1.51-1.5,1.51-3.94,0.01-5.45
			c0,0-0.01-0.01-0.01-0.01L94.62,35.53c-1.5-1.51-3.94-1.51-5.45-0.01c0,0-0.01,0.01-0.01,0.01L37.5,87.19z"/>
		<path class="st7" d="M99.33,63.96c-0.85,0-1.67-0.33-2.28-0.93L77.13,43.04c-1.26-1.26-1.26-3.3,0-4.56s3.3-1.26,4.56,0
			l19.99,19.99c1.26,1.25,1.27,3.28,0.02,4.54c-0.01,0.01-0.01,0.01-0.02,0.02C101.05,63.65,100.21,63.99,99.33,63.96z"/>
		
			<rect x="49.26" y="70.04" transform="matrix(0.7071 -0.7071 0.7071 0.7071 -32.1925 68.775)" class="st7" width="35.33" height="6.42"/>
		<path class="st7" d="M121.79,111.42H70.45c-1.77,0-3.21-1.44-3.21-3.21s1.44-3.21,3.21-3.21h51.34c1.77,0,3.21,1.44,3.21,3.21
			S123.57,111.42,121.79,111.42z"/>
	</g>
</g>
</svg>
