<?xml version="1.0" encoding="utf-8"?>
<!-- Generator: Adobe Illustrator 28.1.0, SVG Export Plug-In . SVG Version: 6.00 Build 0)  -->
<svg version="1.1" id="圖層_1" xmlns="http://www.w3.org/2000/svg" xmlns:xlink="http://www.w3.org/1999/xlink" x="0px" y="0px"
	 viewBox="0 0 24 24" style="enable-background:new 0 0 24 24;" xml:space="preserve">
<style type="text/css">
	.st0{fill:#005087;}
	.st1{fill:#64DCF0;}
</style>
<path class="st0" d="M20,21.5H4c-1.9,0-3.5-1.6-3.5-3.5V6c0-1.9,1.6-3.5,3.5-3.5h16c1.9,0,3.5,1.6,3.5,3.5v12
	C23.5,19.9,21.9,21.5,20,21.5z M4,5.5C3.7,5.5,3.5,5.7,3.5,6v12c0,0.3,0.2,0.5,0.5,0.5h16c0.3,0,0.5-0.2,0.5-0.5V6
	c0-0.3-0.2-0.5-0.5-0.5H4z"/>
<path class="st0" d="M12,14.5c-0.3,0-0.6-0.1-0.9-0.3l-10-7C0.5,6.8,0.3,5.8,0.8,5.1c0.5-0.7,1.4-0.8,2.1-0.4l9.1,6.4l9.1-6.4
	c0.7-0.5,1.6-0.3,2.1,0.4c0.5,0.7,0.3,1.6-0.4,2.1l-10,7C12.6,14.4,12.3,14.5,12,14.5z"/>
<circle id="Ellipse_185" class="st1" cx="43" cy="6.3" r="18"/>
<g id="Group_4011" transform="translate(13.221 9.015)">
	<path id="Path_1270" class="st0" d="M31.7,6.5l3-1.1c-0.6-1.7-1.5-3.4-2.6-4.8c-0.7-0.7-2.3-2-3.6-3c0.9-0.7,1.8-1.4,2.7-2.2
		c1.3-1.7,2.5-3.6,3.4-5.5l-2.9-1.5C31-10,30.1-8.5,29-7c-1.3,1.1-2.6,2.2-4,3.2l0,2.6c1.1,0.9,4.1,3.3,4.9,4.1
		C30.7,4,31.3,5.2,31.7,6.5z"/>
</g>
</svg>
