<svg width="36" height="36" viewBox="0 0 36 36" fill="none" xmlns="http://www.w3.org/2000/svg">
<path fill-rule="evenodd" clip-rule="evenodd" d="M0 18C0 8.05887 8.05887 0 18 0C27.9411 0 36 8.05887 36 18C36 27.9411 27.9411 36 18 36C8.05887 36 0 27.9411 0 18ZM29.4 17.3428C29.4 12.4117 24.4208 8.4 18.2999 8.4C12.1799 8.4 7.2 12.4117 7.2 17.3428C7.2 21.7635 11.1489 25.4657 16.4831 26.1658C16.8446 26.2432 17.3366 26.4024 17.4611 26.7092C17.573 26.9878 17.5343 27.4243 17.4968 27.7057C17.4968 27.7057 17.3666 28.4833 17.3385 28.6489C17.2902 28.9276 17.1155 29.7386 18.2999 29.243C19.4847 28.7474 24.6925 25.5061 27.0212 22.8449C28.6299 21.0936 29.4 19.3163 29.4 17.3428Z" fill="#005087"/>
<path fill-rule="evenodd" clip-rule="evenodd" d="M15.9858 15H15.2144C15.0961 15 15 15.0992 15 15.2212V20.1788C15 20.301 15.0961 20.4 15.2144 20.4H15.9858C16.1041 20.4 16.2 20.301 16.2 20.1788V15.2212C16.2 15.0992 16.1041 15 15.9858 15Z" fill="#005087"/>
<path fill-rule="evenodd" clip-rule="evenodd" d="M21.3745 15H20.5625C20.438 15 20.337 15.0992 20.337 15.2212V18.1665L18.0253 15.0984C18.02 15.0905 18.014 15.0831 18.0078 15.0759L18.0062 15.0746C18.0018 15.0696 17.9973 15.0652 17.9927 15.0609C17.9913 15.0595 17.99 15.0585 17.9885 15.0571C17.9847 15.0537 17.9807 15.0504 17.9765 15.0473C17.9747 15.0456 17.9727 15.0443 17.9707 15.0427C17.9667 15.0401 17.9629 15.0373 17.9589 15.0349C17.9567 15.0334 17.9545 15.0321 17.9521 15.031C17.9481 15.0286 17.9441 15.0262 17.9401 15.0242C17.9376 15.0231 17.9354 15.0218 17.933 15.0209C17.9288 15.019 17.9245 15.017 17.9201 15.0155C17.9174 15.0146 17.9152 15.0137 17.9128 15.0129C17.9083 15.0113 17.9039 15.0098 17.8992 15.0087C17.8968 15.0079 17.8941 15.0074 17.8915 15.0065C17.887 15.0057 17.8828 15.0046 17.8786 15.0037C17.8755 15.0033 17.8722 15.0028 17.8691 15.0026C17.8651 15.0017 17.8611 15.0015 17.8571 15.0011C17.8533 15.0007 17.8495 15.0007 17.8455 15.0004C17.8426 15.0004 17.8404 15 17.8375 15H17.0257C16.9012 15 16.8 15.0992 16.8 15.2212V20.1788C16.8 20.301 16.9012 20.4 17.0257 20.4H17.8375C17.9623 20.4 18.0633 20.301 18.0633 20.1788V17.2343L20.3778 20.3064C20.3938 20.3287 20.4135 20.3468 20.4351 20.3612C20.4357 20.3616 20.4366 20.3623 20.4373 20.3629C20.4419 20.3658 20.4466 20.3686 20.4513 20.3712C20.4535 20.3725 20.4555 20.3734 20.4577 20.3745C20.461 20.3764 20.4648 20.3782 20.4684 20.3797C20.4721 20.3812 20.4755 20.3828 20.4795 20.3843C20.4817 20.3852 20.4839 20.386 20.4861 20.3867C20.4914 20.3887 20.4963 20.3902 20.5014 20.3917C20.5025 20.3917 20.5036 20.3921 20.5048 20.3924C20.5232 20.3972 20.5425 20.4 20.5625 20.4H21.3745C21.4992 20.4 21.6 20.301 21.6 20.1788V15.2212C21.6 15.0992 21.4992 15 21.3745 15Z" fill="#005087"/>
<path fill-rule="evenodd" clip-rule="evenodd" d="M14.1807 19.1586H12.0307V15.2216C12.0307 15.0992 11.9323 15 11.8112 15H11.0197C10.8984 15 10.8 15.0992 10.8 15.2216V20.1782C10.8 20.2377 10.8236 20.292 10.8614 20.3317C10.8623 20.3328 10.8631 20.3339 10.8644 20.335C10.8655 20.3361 10.8666 20.337 10.8677 20.3381C10.9073 20.3764 10.9605 20.4 11.0195 20.4H14.1807C14.302 20.4 14.4 20.3005 14.4 20.1782V19.3802C14.4 19.2578 14.302 19.1586 14.1807 19.1586Z" fill="#005087"/>
<path fill-rule="evenodd" clip-rule="evenodd" d="M25.5807 16.2414C25.702 16.2414 25.8 16.1424 25.8 16.0198V15.2218C25.8 15.0995 25.702 15 25.5807 15H22.4197C22.3605 15 22.3066 15.024 22.267 15.0626C22.2662 15.0635 22.2651 15.0641 22.2644 15.065C22.2631 15.0663 22.2621 15.0676 22.261 15.0689C22.2234 15.1086 22.2 15.1623 22.2 15.2216V20.1784C22.2 20.238 22.2236 20.292 22.2614 20.3317C22.2623 20.3328 22.2634 20.3341 22.2644 20.335C22.2653 20.3361 22.2666 20.3372 22.2677 20.3381C22.307 20.3762 22.3605 20.4 22.4193 20.4H25.5807C25.702 20.4 25.8 20.3005 25.8 20.1784V19.3802C25.8 19.258 25.702 19.1586 25.5807 19.1586H23.4309V18.3206H25.5807C25.702 18.3206 25.8 18.2214 25.8 18.099V17.301C25.8 17.1786 25.702 17.0792 25.5807 17.0792H23.4309V16.2414H25.5807Z" fill="#005087"/>
</svg>
