<?xml version="1.0" encoding="utf-8"?>
<!-- Generator: Adobe Illustrator 28.1.0, SVG Export Plug-In . SVG Version: 6.00 Build 0)  -->
<svg version="1.1" id="圖層_1" xmlns="http://www.w3.org/2000/svg" xmlns:xlink="http://www.w3.org/1999/xlink" x="0px" y="0px"
	 viewBox="0 0 150 150" style="enable-background:new 0 0 150 150;" xml:space="preserve">
<style type="text/css">
	.st0{display:none;}
	.st1{display:inline;fill:none;stroke:#005087;stroke-width:5;stroke-miterlimit:10;}
	.st2{display:inline;}
	.st3{fill:#64DCF0;stroke:#005087;stroke-width:5;stroke-miterlimit:10;}
	.st4{display:inline;fill:#005087;}
	.st5{font-family:'MabryPro-Black';}
	.st6{font-size:26.3744px;}
	.st7{fill:#005087;}
	.st8{fill:none;stroke:#005087;stroke-width:6;stroke-miterlimit:10;}
	.st9{enable-background:new    ;}
</style>
<g id="圖層_1_00000034782657899568295610000017768201932800545411_" class="st0">
	<rect x="14.33" y="29.61" class="st1" width="115.98" height="75.62"/>
	<rect x="59.8" y="105.22" class="st1" width="25.04" height="18.29"/>
	<rect x="37.72" y="124.17" class="st1" width="69.19" height="8.9"/>
	<g id="Layer_1" class="st2">
		<g>
			<path class="st3" d="M85.44,88.44l-2.05-2.79C79.25,80,80.47,72.04,86.12,67.9s13.61-2.92,17.75,2.73l2.05,2.79"/>
			<path class="st3" d="M124.83,70.81c-2.51,1.48-3.14,4.76-1.46,7.05c-1.58-2.16-4.62-2.62-6.78-1.04
				c-2.16,1.58-2.62,4.62-1.04,6.78c-1.58-2.16-4.62-2.62-6.78-1.04c-2.16,1.58-2.62,4.62-1.04,6.78l-9.01-12.28
				c-1.5-2.04-4.34-2.83-6.52-1.54c-2.51,1.48-3.14,4.76-1.46,7.05l12.04,16.41l3.44,4.69l0.53,0.73l-10.44-1.6
				c-2.65-0.41-5.12,1.41-5.53,4.05l0,0c-0.41,2.65,1.41,5.12,4.05,5.53l20.02,3.08l0.53,0.73l3.44,4.69l26.58-19.5l-2.49-3.39
				c-0.61-0.83-0.86-1.87-0.71-2.88l0.76-4.96c0.16-1.02-0.1-2.05-0.71-2.88l-1.92-2.61l-6.31-8.6l-2.7-3.69
				C129.85,70.3,127.01,69.52,124.83,70.81z"/>
		</g>
	</g>
	<text transform="matrix(0.9915 0 0 1 24.0566 61.8164)" class="st4 st5 st6">AUO</text>
</g>
<g id="圖層_2_00000148650349623637812560000015805747096757492910_" class="st0">
	<g id="Layer_x0020_1" class="st2">
		<path class="st7" d="M78.89,58.26c6.86,0,12.46,5.6,12.46,12.46v5.78c0,1.44-1.17,2.61-2.61,2.61H69.05
			c-1.44,0-2.61-1.17-2.61-2.61v-5.78C66.43,63.86,72.04,58.26,78.89,58.26z M55.86,90.72c-3.44,0-3.44-5.22,0-5.22h46.06
			c3.44,0,3.44,5.22,0,5.22H55.86z M55.86,113.2c-3.44,0-3.44-5.22,0-5.22h46.06c3.44,0,3.44,5.22,0,5.22H55.86z M55.86,101.96
			c-3.44,0-3.44-5.22,0-5.22h46.06c3.44,0,3.44,5.22,0,5.22H55.86z M40.51,24.22h58.94c0.72,0,1.37,0.29,1.85,0.77l17.82,17.82
			c0.51,0.51,0.77,1.18,0.77,1.85v81.43c0,1.44-1.17,2.61-2.61,2.61H40.51c-1.44,0-2.61-1.17-2.61-2.61V26.83
			C37.9,25.39,39.07,24.22,40.51,24.22z M98.37,29.44H43.12v94.02h71.54V45.73L98.37,29.44z M78.89,36.69
			c5.82,0,10.53,4.72,10.53,10.53c0,5.82-4.71,10.53-10.53,10.53s-10.53-4.72-10.53-10.53S73.07,36.69,78.89,36.69z M78.89,41.92
			c-2.93,0-5.31,2.38-5.31,5.31s2.38,5.31,5.31,5.31s5.31-2.38,5.31-5.31C84.2,44.29,81.82,41.92,78.89,41.92z M78.89,63.49
			c-3.97,0-7.23,3.26-7.23,7.23v3.17h14.47v-3.17C86.12,66.75,82.86,63.49,78.89,63.49z"/>
	</g>
</g>
<g id="圖層_3" class="st0">
	<g id="_309-Email_Check" class="st2">
		<polyline class="st8" points="71.68,111.56 25.15,111.56 25.15,38.44 124.85,38.44 124.85,71.68 		"/>
		<polyline class="st8" points="25.15,38.44 75,75 124.85,38.44 		"/>
		<polyline class="st8" points="88.29,94.94 98.26,104.91 121.53,81.65 		"/>
	</g>
</g>
<g id="圖層_4">
	<g>
		<path class="st7" d="M48.39,121.91c-10.44,0-16.79-6.23-17.05-6.5c-1.42-1.41-1.42-3.71,0-5.12c1.41-1.41,3.69-1.41,5.11-0.02
			c0.21,0.2,4.63,4.39,11.95,4.39c7.34,0,11.76-4.21,11.95-4.39c1.43-1.39,3.72-1.37,5.11,0.05c1.4,1.42,1.4,3.69-0.01,5.1
			C65.18,115.68,58.83,121.91,48.39,121.91z"/>
		<path class="st7" d="M41.14,103.8h-1.81c-2,0-3.62-1.62-3.62-3.62s1.62-3.62,3.62-3.62h1.81c1.62,0,3.62-2,3.62-3.62v-16.3
			c0-2,1.62-3.62,3.62-3.62S52,74.64,52,76.64v16.3C52.01,98.51,46.73,103.8,41.14,103.8z"/>
		<path class="st7" d="M66.5,83.87c-2,0-3.62-1.62-3.62-3.62v-3.62c0-2,1.62-3.62,3.62-3.62s3.62,1.62,3.62,3.62v3.62
			C70.13,82.25,68.5,83.87,66.5,83.87z"/>
		<path class="st7" d="M30.27,83.87c-2,0-3.62-1.62-3.62-3.62v-3.62c0-2,1.62-3.62,3.62-3.62s3.62,1.62,3.62,3.62v3.62
			C33.89,82.25,32.27,83.87,30.27,83.87z"/>
	</g>
	<g id="Expanded">
		<g>
			<g>
				<path class="st7" d="M91.29,100.45c-0.35,0-0.69-0.06-1.03-0.2c-1-0.41-1.65-1.39-1.65-2.48V79h-8.05
					c-1.48,0-2.68-1.2-2.68-2.68s1.2-2.68,2.68-2.68h10.73c1.48,0,2.68,1.2,2.68,2.68V91.3l16.88-16.88c0.5-0.5,1.18-0.79,1.9-0.79
					h16.09v-42.9H53.75V49.5c0,1.48-1.2,2.68-2.68,2.68s-2.68-1.2-2.68-2.68V28.05c0-1.48,1.2-2.68,2.68-2.68h80.45
					c1.48,0,2.68,1.2,2.68,2.68v48.27c0,1.48-1.2,2.68-2.68,2.68h-17.66L93.19,99.67C92.68,100.18,91.99,100.45,91.29,100.45z"/>
			</g>
		</g>
	</g>
	<g class="st9">
		<path class="st7" d="M78.27,54.23v8.68h-5.14v-22.5h5.14v9.16h9.96v-9.16h5.14v22.5h-5.14v-8.68H78.27z"/>
		<path class="st7" d="M97.13,40.73h5.14v4.98h-5.14V40.73z M102.11,47.67v15.23h-4.82V47.67H102.11z"/>
	</g>
</g>
<g id="圖層_5">
</g>
</svg>
