<?xml version="1.0" encoding="utf-8"?>
<!-- Generator: Adobe Illustrator 28.1.0, SVG Export Plug-In . SVG Version: 6.00 Build 0)  -->
<svg version="1.1" id="圖層_1" xmlns="http://www.w3.org/2000/svg" xmlns:xlink="http://www.w3.org/1999/xlink" x="0px" y="0px"
	 viewBox="0 0 41 38" style="enable-background:new 0 0 41 38;" xml:space="preserve">
<style type="text/css">
	.st0{fill:#005087;}
</style>
<path class="st0" d="M20.5,36.6c-2-1.9-4.3-3.4-6.9-4.4c-2.6-1-5.3-1.5-8.2-1.5V12.2c2.8,0,5.6,0.5,8.2,1.5s4.9,2.5,7,4.4
	c2-1.9,4.4-3.4,7-4.4s5.3-1.5,8.2-1.5v18.5c-2.9,0-5.6,0.5-8.2,1.5C24.8,33.2,22.5,34.7,20.5,36.6z M20.5,32.2
	c1.8-1.3,3.6-2.4,5.6-3.2c2-0.8,4-1.3,6.1-1.6V15.9c-2,0.4-4.1,1.1-6,2.2c-2,1.1-3.9,2.6-5.7,4.4c-1.9-1.9-3.8-3.3-5.7-4.4
	c-2-1.1-4-1.8-6-2.2v11.6c2.1,0.3,4.2,0.8,6.1,1.6S18.7,30.9,20.5,32.2z M20.5,13.9c-1.9,0-3.4-0.7-4.8-2s-2-2.9-2-4.8
	s0.7-3.4,2-4.8s2.9-2,4.8-2s3.4,0.7,4.8,2c1.3,1.3,2,2.9,2,4.8s-0.7,3.4-2,4.8C23.9,13.2,22.4,13.9,20.5,13.9z M20.5,10.5
	c0.9,0,1.7-0.3,2.4-1c0.7-0.7,1-1.5,1-2.4s-0.3-1.7-1-2.4c-0.7-0.7-1.5-1-2.4-1s-1.7,0.3-2.4,1c-0.7,0.7-1,1.5-1,2.4s0.3,1.7,1,2.4
	C18.8,10.2,19.6,10.5,20.5,10.5z"/>
</svg>
