<?xml version="1.0" encoding="utf-8"?>
<!-- Generator: Adobe Illustrator 27.7.0, SVG Export Plug-In . SVG Version: 6.00 Build 0)  -->
<svg version="1.1" id="圖層_1" xmlns="http://www.w3.org/2000/svg" xmlns:xlink="http://www.w3.org/1999/xlink" x="0px" y="0px"
	 viewBox="0 0 38 33" style="enable-background:new 0 0 38 33;" xml:space="preserve">
<style type="text/css">
	.st0{fill-rule:evenodd;clip-rule:evenodd;fill:#005087;}
</style>
<g>
	<path class="st0" d="M11.8,1.5c0-0.7,0.5-1.3,1.2-1.3h12c0.7,0,1.2,0.6,1.2,1.3v5c0,0.7-0.5,1.3-1.2,1.3H13c-0.7,0-1.2-0.6-1.2-1.3
		V1.5z M14.2,2.8v2.5h9.6V2.8H14.2z"/>
	<path class="st0" d="M1.8,6.3c0-0.7,0.5-1.2,1.2-1.2H35c0.7,0,1.2,0.6,1.2,1.2v22.3c0,0.7-0.5,1.2-1.2,1.2H3
		c-0.7,0-1.2-0.6-1.2-1.2V6.3z M4.3,7.5v19.8h29.5V7.5H4.3z"/>
	<path class="st0" d="M1.8,6.3c0-0.7,0.5-1.2,1.2-1.2H35c0.7,0,1.2,0.6,1.2,1.2v8.7c0,0.6-0.4,1.1-1,1.2l-12.3,2.5
		c-0.7,0.1-1.3-0.3-1.4-1c-0.1-0.7,0.3-1.3,1-1.5L33.7,14V7.6H4.3V14l11.3,2.3c0.7,0.1,1.1,0.8,1,1.5c-0.1,0.7-0.8,1.1-1.4,1
		L2.8,16.3c-0.6-0.1-1-0.6-1-1.2V6.3z"/>
	<path class="st0" d="M15.2,15.3c0-0.7,0.6-1.3,1.3-1.3h5c0.7,0,1.3,0.6,1.3,1.3v5c0,0.7-0.6,1.3-1.3,1.3h-5c-0.7,0-1.3-0.6-1.3-1.3
		V15.3z M17.7,16.5V19h2.5v-2.5H17.7z"/>
</g>
</svg>
