<svg width="41" height="38" viewBox="0 0 41 38" fill="none" xmlns="http://www.w3.org/2000/svg">
<path d="M39.6498 7.03566L22.425 0.339295C22.119 0.220235 21.7801 0.220235 21.474 0.339295L4.24925 7.03566C4.00485 7.14109 3.79519 7.31466 3.64477 7.53607C3.49435 7.75748 3.40939 8.01759 3.3998 8.28601V27.8906L1.05711 30.7322C0.885898 30.9399 0.780867 31.1951 0.755823 31.4642C0.730779 31.7333 0.786895 32.0038 0.916791 32.2401L3.56675 37.0615C3.68153 37.2702 3.84942 37.4441 4.05303 37.5651C4.25664 37.6862 4.48856 37.75 4.72478 37.75C4.961 37.75 5.19292 37.6862 5.39653 37.5651C5.60014 37.4441 5.76803 37.2702 5.88281 37.0615L8.53277 32.2401C8.66267 32.0038 8.71879 31.7333 8.69374 31.4642C8.6687 31.1951 8.56367 30.9399 8.39246 30.7322L6.04976 27.8906V10.2363L10.0247 11.7815V18.8931C10.0247 19.1636 10.1058 19.4279 10.2573 19.651C10.4089 19.874 10.6237 20.0455 10.8735 20.1427L21.4733 24.2677C21.7798 24.3872 22.1192 24.3872 22.4257 24.2677L33.0255 20.1427C33.2754 20.0455 33.4902 19.874 33.6417 19.651C33.7932 19.4279 33.8743 19.1636 33.8743 18.8931V11.7815L39.6498 9.53622C39.9 9.43916 40.1152 9.26771 40.2669 9.04448C40.4187 8.82125 40.5 8.55675 40.5 8.28588C40.5 8.015 40.4187 7.7505 40.2669 7.52727C40.1152 7.30404 39.9 7.13272 39.6498 7.03566ZM4.72478 33.6531L3.67407 31.7417L4.72478 30.4671L5.77549 31.7417L4.72478 33.6531ZM31.2244 17.9735L21.9495 21.5826L12.6747 17.9735V12.8118L21.474 16.2327C21.7801 16.3518 22.119 16.3518 22.425 16.2327L31.2244 12.8118V17.9735ZM32.1051 9.59943C32.0945 9.60318 32.0831 9.60359 32.0725 9.60761L21.9495 13.5476L11.8719 9.62528H21.9495C22.3009 9.62528 22.6379 9.48418 22.8864 9.23302C23.1349 8.98186 23.2745 8.64121 23.2745 8.28601C23.2745 7.93081 23.1349 7.59016 22.8864 7.339C22.6379 7.08784 22.3009 6.94674 21.9495 6.94674H11.8606L21.9495 3.0244L35.4834 8.28601L32.1051 9.59943Z" fill="#005087"/>
</svg>
