<?xml version="1.0" encoding="utf-8"?>
<!-- Generator: Adobe Illustrator 27.7.0, SVG Export Plug-In . SVG Version: 6.00 Build 0)  -->
<svg version="1.1" id="圖層_1" xmlns="http://www.w3.org/2000/svg" xmlns:xlink="http://www.w3.org/1999/xlink" x="0px" y="0px"
	 viewBox="0 0 35 34" style="enable-background:new 0 0 35 34;" xml:space="preserve">
<style type="text/css">
	.st0{fill:#005087;}
</style>
<path class="st0" d="M32.5,0.5H2.5c-0.3,0-0.6,0.1-0.8,0.3C1.5,1,1.4,1.3,1.4,1.6v22.6c0,0.3,0.1,0.6,0.3,0.8
	c0.2,0.2,0.5,0.3,0.8,0.3h10v4.5H9.1c-0.3,0-0.6,0.1-0.8,0.3C8.2,30.4,8,30.7,8,31c0,0.3,0.1,0.6,0.3,0.8c0.2,0.2,0.5,0.3,0.8,0.3
	h15.6c0.3,0,0.6-0.1,0.8-0.3c0.2-0.2,0.3-0.5,0.3-0.8c0-0.3-0.1-0.6-0.3-0.8c-0.2-0.2-0.5-0.3-0.8-0.3h-3.3v-4.5h11.1
	c0.3,0,0.6-0.1,0.8-0.3c0.2-0.2,0.3-0.5,0.3-0.8V1.6c0-0.3-0.1-0.6-0.3-0.8C33.1,0.6,32.8,0.5,32.5,0.5z M31.4,2.8v15.8H3.6V2.8
	H31.4z M19.2,29.8h-4.5v-4.5h4.5V29.8z M20.3,23.1H3.6v-2.3h27.8v2.3H20.3z"/>
</svg>
