<?xml version="1.0" encoding="utf-8"?>
<!-- Generator: Adobe Illustrator 27.7.0, SVG Export Plug-In . SVG Version: 6.00 Build 0)  -->
<svg version="1.1" id="圖層_1" xmlns="http://www.w3.org/2000/svg" xmlns:xlink="http://www.w3.org/1999/xlink" x="0px" y="0px"
	 viewBox="0 0 57 53" style="enable-background:new 0 0 57 53;" xml:space="preserve">
<style type="text/css">
	.st0{fill-rule:evenodd;clip-rule:evenodd;fill:#005087;}
</style>
<g>
	<path class="st0" d="M11.8,5.1c0.9-4,6.6-4,7.6,0c0.2,0.7,0.9,1,1.5,0.6c3.5-2.2,7.5,1.9,5.4,5.4c-0.4,0.6,0,1.3,0.6,1.5
		c4,0.9,4,6.6,0,7.6c-0.7,0.2-1,0.9-0.6,1.5c2.2,3.5-1.9,7.5-5.4,5.4c-0.6-0.4-1.3,0-1.5,0.6c-0.9,4-6.6,4-7.6,0
		c-0.2-0.7-0.9-1-1.5-0.6c-3.5,2.2-7.5-1.9-5.4-5.4c0.4-0.6,0-1.3-0.6-1.5c-4-0.9-4-6.6,0-7.6c0.7-0.2,1-0.9,0.6-1.5
		c-2.2-3.5,1.9-7.5,5.4-5.4C10.9,6.1,11.6,5.7,11.8,5.1z M16.5,5.7c-0.2-1-1.7-1-1.9,0C14,8.3,11,9.6,8.8,8.2
		C7.9,7.6,6.9,8.6,7.4,9.5c1.4,2.3,0.2,5.2-2.4,5.8c-1,0.2-1,1.7,0,1.9c2.6,0.6,3.8,3.6,2.4,5.8C6.9,24,7.9,25,8.8,24.5
		c2.3-1.4,5.2-0.2,5.8,2.4c0.2,1,1.7,1,1.9,0c0.6-2.6,3.6-3.8,5.8-2.4c0.9,0.5,1.9-0.5,1.4-1.4c-1.4-2.3-0.2-5.2,2.4-5.8
		c1-0.2,1-1.7,0-1.9c-2.6-0.6-3.8-3.6-2.4-5.8c0.5-0.9-0.5-1.9-1.4-1.4C20.1,9.6,17.1,8.3,16.5,5.7z"/>
	<path class="st0" d="M15.6,14.2c-1.2,0-2.1,0.9-2.1,2.1s0.9,2.1,2.1,2.1s2.1-0.9,2.1-2.1S16.7,14.2,15.6,14.2z M10.7,16.3
		c0-2.7,2.2-4.9,4.9-4.9s4.9,2.2,4.9,4.9s-2.2,4.9-4.9,4.9S10.7,19,10.7,16.3z"/>
</g>
<g>
	<path class="st0" d="M36.6,24.9c1-4.4,7.2-4.4,8.2,0c0.2,0.7,1,1.1,1.6,0.7c3.8-2.4,8.2,2,5.8,5.8c-0.4,0.6,0,1.4,0.7,1.6
		c4.4,1,4.4,7.2,0,8.2c-0.7,0.2-1.1,1-0.7,1.6c2.4,3.8-2,8.2-5.8,5.8c-0.6-0.4-1.4,0-1.6,0.7c-1,4.4-7.2,4.4-8.2,0
		c-0.2-0.7-1-1.1-1.6-0.7c-3.8,2.4-8.2-2-5.8-5.8c0.4-0.6,0-1.4-0.7-1.6c-4.4-1-4.4-7.2,0-8.2c0.7-0.2,1.1-1,0.7-1.6
		c-2.4-3.8,2-8.2,5.8-5.8C35.6,26,36.4,25.6,36.6,24.9z M41.7,25.6c-0.3-1.1-1.8-1.1-2.1,0c-0.7,2.8-3.9,4.2-6.4,2.6
		c-1-0.6-2.1,0.5-1.5,1.5c1.5,2.5,0.2,5.7-2.6,6.4c-1.1,0.3-1.1,1.8,0,2.1c2.8,0.7,4.2,3.9,2.6,6.4c-0.6,1,0.5,2.1,1.5,1.5
		c2.5-1.5,5.7-0.2,6.4,2.6c0.3,1.1,1.8,1.1,2.1,0c0.7-2.8,3.9-4.2,6.4-2.6c1,0.6,2.1-0.5,1.5-1.5c-1.5-2.5-0.2-5.7,2.6-6.4
		c1.1-0.3,1.1-1.8,0-2.1c-2.8-0.7-4.2-3.9-2.6-6.4c0.6-1-0.5-2.1-1.5-1.5C45.6,29.8,42.4,28.4,41.7,25.6z"/>
	<path class="st0" d="M40.7,34.9c-1.3,0-2.3,1-2.3,2.3c0,1.3,1,2.3,2.3,2.3c1.3,0,2.3-1,2.3-2.3C43,35.9,41.9,34.9,40.7,34.9z
		 M35.4,37.1c0-2.9,2.4-5.3,5.3-5.3s5.3,2.4,5.3,5.3s-2.4,5.3-5.3,5.3S35.4,40.1,35.4,37.1z"/>
</g>
</svg>
