<svg width="39" height="39" viewBox="0 0 39 39" fill="none" xmlns="http://www.w3.org/2000/svg">
<path fill-rule="evenodd" clip-rule="evenodd" d="M7.83917 24.6545C8.40136 24.3352 9.11908 24.5267 9.44225 25.082C10.4799 26.8654 11.9579 28.36 13.7384 29.4265C15.5188 30.493 17.5437 31.0966 19.6241 31.1811C20.272 31.2074 20.7756 31.7476 20.749 32.3877C20.7224 33.0278 20.1755 33.5253 19.5276 33.499C17.0509 33.3984 14.6404 32.6798 12.5208 31.4101C10.4013 30.1405 8.64175 28.3612 7.4064 26.2382C7.08323 25.6828 7.27699 24.9738 7.83917 24.6545Z" fill="#005087"/>
<path fill-rule="evenodd" clip-rule="evenodd" d="M32.9108 13.0955C32.3486 13.4148 31.6309 13.2233 31.3077 12.668C30.2701 10.8846 28.7921 9.39003 27.0116 8.32352C25.2312 7.25701 23.2063 6.65336 21.1259 6.56887C20.478 6.54256 19.9744 6.00235 20.001 5.36229C20.0276 4.72223 20.5745 4.22468 21.2224 4.251C23.6991 4.35158 26.1096 5.07022 28.2292 6.33987C30.3487 7.60952 32.1082 9.38883 33.3436 11.5118C33.6668 12.0672 33.473 12.7762 32.9108 13.0955Z" fill="#005087"/>
<path fill-rule="evenodd" clip-rule="evenodd" d="M9.875 5.1875C8.52881 5.1875 7.4375 6.27881 7.4375 7.625C7.4375 8.97119 8.52881 10.0625 9.875 10.0625C11.2212 10.0625 12.3125 8.97119 12.3125 7.625C12.3125 6.27881 11.2212 5.1875 9.875 5.1875ZM5 7.625C5 4.93261 7.18261 2.75 9.875 2.75C12.5674 2.75 14.75 4.93261 14.75 7.625C14.75 10.3174 12.5674 12.5 9.875 12.5C7.18261 12.5 5 10.3174 5 7.625Z" fill="#005087"/>
<path fill-rule="evenodd" clip-rule="evenodd" d="M29.375 18.6875C28.0288 18.6875 26.9375 19.7788 26.9375 21.125C26.9375 22.4712 28.0288 23.5625 29.375 23.5625C30.7212 23.5625 31.8125 22.4712 31.8125 21.125C31.8125 19.7788 30.7212 18.6875 29.375 18.6875ZM24.5 21.125C24.5 18.4326 26.6826 16.25 29.375 16.25C32.0674 16.25 34.25 18.4326 34.25 21.125C34.25 23.8174 32.0674 26 29.375 26C26.6826 26 24.5 23.8174 24.5 21.125Z" fill="#005087"/>
<path fill-rule="evenodd" clip-rule="evenodd" d="M9.875 16.4375C7.25165 16.4375 5.125 18.6201 5.125 21.3125V22.5312C5.125 23.2043 4.59334 23.75 3.9375 23.75C3.28166 23.75 2.75 23.2043 2.75 22.5312V21.3125C2.75 17.2739 5.93997 14 9.875 14C13.81 14 17 17.2739 17 21.3125V22.5312C17 23.2043 16.4683 23.75 15.8125 23.75C15.1567 23.75 14.625 23.2043 14.625 22.5312V21.3125C14.625 18.6201 12.4984 16.4375 9.875 16.4375Z" fill="#005087"/>
<path fill-rule="evenodd" clip-rule="evenodd" d="M29.375 29.1875C26.7516 29.1875 24.625 31.3701 24.625 34.0625V35.2812C24.625 35.9543 24.0933 36.5 23.4375 36.5C22.7817 36.5 22.25 35.9543 22.25 35.2812V34.0625C22.25 30.0239 25.44 26.75 29.375 26.75C33.31 26.75 36.5 30.0239 36.5 34.0625V35.2812C36.5 35.9543 35.9683 36.5 35.3125 36.5C34.6567 36.5 34.125 35.9543 34.125 35.2812V34.0625C34.125 31.3701 31.9984 29.1875 29.375 29.1875Z" fill="#005087"/>
</svg>
