<?xml version="1.0" encoding="utf-8"?>
<!-- Generator: Adobe Illustrator 27.7.0, SVG Export Plug-In . SVG Version: 6.00 Build 0)  -->
<svg version="1.1" id="圖層_1" xmlns="http://www.w3.org/2000/svg" xmlns:xlink="http://www.w3.org/1999/xlink" x="0px" y="0px"
	 viewBox="0 0 30 42" style="enable-background:new 0 0 30 42;" xml:space="preserve">
<style type="text/css">
	.st0{fill:#005087;}
</style>
<path class="st0" d="M15,0c-2.1,0-4.2,0.7-5.8,2C7.5,3.3,6.3,5.1,5.7,7.1c-0.5,2.1-0.4,4.2,0.4,6.2c0.8,2,2.2,3.6,4.1,4.7v5.2
	c0,0.3,0.1,0.5,0.3,0.7c0.2,0.2,0.4,0.3,0.7,0.3h1c0,0.8,0.3,1.5,0.8,2c0.5,0.5,1.3,0.8,2,0.8s1.5-0.3,2-0.8c0.5-0.5,0.8-1.3,0.8-2
	h1c0.3,0,0.5-0.1,0.7-0.3c0.2-0.2,0.3-0.4,0.3-0.7V18c1.8-1.1,3.3-2.7,4.1-4.7c0.8-2,0.9-4.1,0.4-6.2c-0.5-2.1-1.7-3.9-3.4-5.2
	C19.2,0.7,17.1,0,15,0z M15,25.1c-0.3,0-0.5-0.1-0.7-0.3c-0.2-0.2-0.3-0.4-0.3-0.7H16c0,0.3-0.1,0.5-0.3,0.7
	C15.5,25,15.3,25.1,15,25.1z M12.1,22.2v-1h5.7v1H12.1z M18.4,16.6c-0.2,0.1-0.3,0.2-0.4,0.4c-0.1,0.2-0.1,0.3-0.1,0.5v1.9H16v-1.5
	l1.6-1.6c0.2-0.2,0.3-0.4,0.3-0.7c0-0.3-0.1-0.5-0.3-0.7c-0.2-0.2-0.4-0.3-0.7-0.3c-0.3,0-0.5,0.1-0.7,0.3L15,16l-1.2-1.2
	c-0.2-0.2-0.4-0.3-0.7-0.3c-0.3,0-0.5,0.1-0.7,0.3c-0.2,0.2-0.3,0.4-0.3,0.7c0,0.3,0.1,0.5,0.3,0.7l1.6,1.6v1.5h-1.9v-1.9
	c0-0.2,0-0.4-0.1-0.5c-0.1-0.2-0.2-0.3-0.4-0.4c-1.5-0.8-2.8-2.1-3.5-3.6c-0.7-1.6-0.9-3.4-0.5-5c0.4-1.7,1.3-3.2,2.7-4.3
	c1.4-1.1,3-1.7,4.8-1.7s3.4,0.6,4.8,1.7c1.4,1.1,2.3,2.6,2.7,4.3c0.4,1.7,0.2,3.5-0.5,5C21.2,14.5,20,15.8,18.4,16.6z"/>
</svg>
