<?xml version="1.0" encoding="UTF-8"?>
<svg xmlns="http://www.w3.org/2000/svg" version="1.1" viewBox="0 0 2000 2000">
  <defs>
    <style>
      .cls-1 {
        font-size: 300.1px;
      }

      .cls-1, .cls-2 {
        font-family: Arial-BoldMT, Arial;
        font-weight: 700;
      }

      .cls-1, .cls-3 {
        fill: #ccc;
      }

      .cls-2 {
        font-size: 80.2px;
      }
    </style>
  </defs>
  <!-- Generator: Adobe Illustrator 28.6.0, SVG Export Plug-In . SVG Version: 1.2.0 Build 709)  -->
  <g>
    <g id="art">
      <g>
        <path class="cls-3" d="M1543.7,499.6c0-98.5-103.5-177.1-257.5-220.2.6,8,1,16,1,24.2,0,21.8-2.4,43-6.8,63.4,109.6,33.1,179.7,83.3,179.7,132.6,0,84.1-203.8,170.9-460,170.9s-459.1-86.3-460.1-170.2v-.7h0c0-49.3,70.1-99.5,179.7-132.6-4.4-20.4-6.8-41.7-6.8-63.4s.3-16.2,1-24.1c-154.1,43.1-257.5,121.7-257.5,220.2s0,1.2,0,1.9v254.5h0v256.4h0v256.4c0,151.8,245.7,256.4,543.7,256.4s543.8-104.6,543.8-256.4v-256.4h0v-256.4h0v-256.4h0ZM1460.1,1268.8c0,84.1-203.8,170.9-460.1,170.9s-460-86.8-460-170.9v-115.6c96.7,71.9,267.4,115.6,460,115.6s363.4-43.7,460.1-115.6v115.6ZM1460.1,1012.4c0,84.1-203.8,170.9-460.1,170.9s-460-86.8-460-170.9v-115.6c96.7,71.9,267.4,115.6,460,115.6s363.4-43.7,460.1-115.6v115.6ZM1460.1,756c0,84.1-203.8,170.9-460.1,170.9s-460-86.8-460-170.9v-115.5c96.7,71.9,267.4,115.6,460.1,115.6s363.4-43.7,460-115.6v115.5Z"/>
        <path class="cls-3" d="M1000,58.2c-132.6,0-240.1,109.8-240.1,245.3s107.5,245.3,240.1,245.3,240.1-109.8,240.1-245.3-107.5-245.3-240.1-245.3ZM1136,392.5c12.8,12.8,12.8,33.7,0,46.5-6.4,6.4-14.9,9.6-23.3,9.6s-16.8-3.2-23.3-9.6l-89.4-89.5-89.5,89.5c-12.8,12.9-33.7,12.8-46.5,0-12.9-12.9-12.9-33.7,0-46.5l89.4-89.5-89.4-89.4c-12.9-12.9-12.9-33.7,0-46.6,12.9-12.8,33.7-12.8,46.5,0l89.5,89.5,89.4-89.5c12.9-12.8,33.7-12.8,46.6,0,12.8,12.9,12.8,33.7,0,46.6l-89.5,89.4,89.5,89.5Z"/>
      </g>
      <text class="cls-2" transform="translate(23989.6 -23247.3)"><tspan x="0" y="0">NO DATA</tspan></text>
      <text class="cls-1" transform="translate(339.4 1905.6)"><tspan x="0" y="0">NO DATA</tspan></text>
    </g>
  </g>
</svg>